<?xml version="1.0" encoding="UTF-8"?>
<svg width="480" height="360" viewBox="0 0 480 360" fill="none" xmlns="http://www.w3.org/2000/svg">
  <rect width="480" height="360" fill="#F6F8F7"/>
  <!-- Background machinery and gears -->
  <g opacity="0.13">
    <rect x="40" y="220" width="100" height="60" rx="8" fill="#1A2A40"/>
    <circle cx="90" cy="250" r="16" fill="#1A2A40"/>
    <rect x="360" y="230" width="70" height="40" rx="8" fill="#1A2A40"/>
    <circle cx="400" cy="250" r="12" fill="#1A2A40"/>
    <rect x="400" y="80" width="30" height="60" rx="6" fill="#1A2A40"/>
  </g>
  <!-- Document -->
  <g>
    <rect x="160" y="120" width="160" height="100" rx="12" fill="#F6F8F7" stroke="#3A4A59" stroke-width="3"/>
    <rect x="180" y="140" width="120" height="12" rx="4" fill="#B0B8C1"/>
    <rect x="180" y="160" width="80" height="8" rx="3" fill="#B0B8C1"/>
    <rect x="180" y="180" width="100" height="8" rx="3" fill="#B0B8C1"/>
    <!-- Signature -->
    <path d="M200 210 Q210 215 220 210 Q230 205 240 210" stroke="#1B4D3E" stroke-width="2" fill="none"/>
  </g>
  <!-- Calendar -->
  <g>
    <rect x="320" y="120" width="60" height="40" rx="8" fill="#D4AF37" stroke="#B89B2B" stroke-width="2"/>
    <rect x="340" y="140" width="20" height="8" rx="2" fill="#F6F8F7"/>
    <rect x="370" y="140" width="8" height="8" rx="2" fill="#F6F8F7"/>
  </g>
  <!-- Handshake -->
  <g>
    <ellipse cx="120" cy="200" rx="18" ry="10" fill="#B0B8C1"/>
    <ellipse cx="140" cy="200" rx="18" ry="10" fill="#D4AF37"/>
    <rect x="110" y="195" width="20" height="10" rx="3" fill="#B0B8C1"/>
    <rect x="140" y="195" width="20" height="10" rx="3" fill="#D4AF37"/>
  </g>
  <!-- Eco-symbols -->
  <g>
    <!-- Recycling icon -->
    <g transform="translate(60,60) scale(1.2)">
      <path d="M12 2L15 8H9L12 2Z" fill="#1B4D3E"/>
      <path d="M2 12L8 15V9L2 12Z" fill="#1B4D3E"/>
      <path d="M22 12L16 15V9L22 12Z" fill="#1B4D3E"/>
    </g>
    <!-- Leaf -->
    <ellipse cx="440" cy="80" rx="8" ry="18" fill="#1B4D3E"/>
  </g>
  <!-- Soft shadow -->
  <ellipse cx="240" cy="270" rx="120" ry="18" fill="#B0B8C1" opacity="0.18"/>
</svg> 