<svg xmlns="http://www.w3.org/2000/svg" viewBox="0 0 448 448">
  <defs>
    <radialGradient id="IG-gradient" cx="30%" cy="107%" r="150%" fx="30%" fy="107%">
      <stop offset="0%" stop-color="#fdf497"/>
      <stop offset="5%" stop-color="#fdf497"/>
      <stop offset="45%" stop-color="#fd5949"/>
      <stop offset="60%" stop-color="#d6249f"/>
      <stop offset="90%" stop-color="#285AEB"/>
    </radialGradient>
  </defs>
  <rect width="448" height="448" rx="100" fill="url(#IG-gradient)"/>
  <path d="M224 144c-44.2 0-80 35.8-80 80s35.8 80 80 80 80-35.8 80-80-35.8-80-80-80zm0 132c-28.7 0-52-23.3-52-52s23.3-52 52-52 52 23.3 52 52-23.3 52-52 52zm85-136c0 10.5-8.5 19-19 19s-19-8.5-19-19 8.5-19 19-19 19 8.5 19 19zm49 19.2c-1-20.9-5.9-39.4-21.6-55.1C320.2 85.9 301.7 81 280.8 80c-21.1-1-84.5-1-105.6 0-20.9 1-39.4 5.9-55.1 21.6C85.9 127.8 81 146.3 80 167.2c-1 21.1-1 84.5 0 105.6 1 20.9 5.9 39.4 21.6 55.1 15.7 15.7 34.2 20.6 55.1 21.6 21.1 1 84.5 1 105.6 0 20.9-1 39.4-5.9 55.1-21.6 15.7-15.7 20.6-34.2 21.6-55.1 1-21.1 1-84.5 0-105.6zM398.8 338c-7.8 19.6-22.9 34.7-42.5 42.5-29.3 11.7-98.5 9-132.3 9s-103 .7-132.3-9c-19.6-7.8-34.7-22.9-42.5-42.5-11.7-29.3-9-98.5-9-132.3s-.7-103 9-132.3c7.8-19.6 22.9-34.7 42.5-42.5C95.5 9.7 164.7 12.4 198.5 12.4s103-.7 132.3 9c19.6 7.8 34.7 22.9 42.5 42.5 11.7 29.3 9 98.5 9 132.3s.7 103-9 132.3z" fill="#fff"/>
</svg>